<?xml version="1.0" encoding="utf-8"?>
<!-- Generator: Adobe Illustrator 27.4.0, SVG Export Plug-In . SVG Version: 6.00 Build 0)  -->
<svg version="1.1" id="Layer_1" xmlns="http://www.w3.org/2000/svg" xmlns:xlink="http://www.w3.org/1999/xlink" x="0px" y="0px"
	 viewBox="0 0 12 12" style="enable-background:new 0 0 12 12;" xml:space="preserve">
<g>
	<rect x="4" y="1" width="1" height="10"/>
	<rect x="7" y="1" width="1" height="10"/>
	<rect x="1" y="4" width="10" height="1"/>
	<rect x="1" y="7" width="10" height="1"/>
	<rect x="1" width="3" height="1"/>
	<rect x="8" width="3" height="1"/>
	<rect x="1" y="11" width="3" height="1"/>
	<rect x="8" y="11" width="3" height="1"/>
	<rect x="10" y="2" transform="matrix(-1.836970e-16 1 -1 -1.836970e-16 14 -9)" width="3" height="1"/>
	<rect x="10" y="9" transform="matrix(-1.836970e-16 1 -1 -1.836970e-16 21 -2)" width="3" height="1"/>
	<rect x="-1" y="2" transform="matrix(-1.836970e-16 1 -1 -1.836970e-16 3 2)" width="3" height="1"/>
	<rect x="-1" y="9" transform="matrix(-1.836970e-16 1 -1 -1.836970e-16 10 9)" width="3" height="1"/>
</g>
</svg>
