<?xml version="1.0" encoding="UTF-8"?><svg id="Layer_1" xmlns="http://www.w3.org/2000/svg" viewBox="0 0 13 13"><defs><style>.cls-1{fill:#fff;}</style></defs><rect class="cls-1" x="1" y="1" width="1" height="1"/><polygon points="2 1 1 1 1 2 2 2 2 1 2 1"/><rect class="cls-1" x="2" y="2" width="1" height="1"/><polygon points="3 2 2 2 2 3 3 3 3 2 3 2"/><rect class="cls-1" x="3" y="3" width="1" height="1"/><polygon points="4 3 3 3 3 4 4 4 4 3 4 3"/><polygon points="5 4 4 4 4 5 5 5 5 4 5 4"/><rect class="cls-1" x="5" y="5" width="1" height="1"/><polygon points="6 5 5 5 5 6 6 6 6 5 6 5"/><polygon points="7 6 6 6 6 7 7 7 7 6 7 6"/><rect class="cls-1" x="7" y="7" width="1" height="1"/><polygon points="8 7 7 7 7 8 8 8 8 7 8 7"/><polygon points="9 8 8 8 8 9 9 9 9 8 9 8"/><rect class="cls-1" x="9" y="9" width="1" height="1"/><polygon points="10 9 9 9 9 10 10 10 10 9 10 9"/><polygon points="11 10 10 10 10 11 11 11 11 10 11 10"/><rect class="cls-1" x="11" y="11" width="1" height="1"/><polygon points="12 11 11 11 11 12 12 12 12 11 12 11"/><rect class="cls-1" x="11" y="1" width="1" height="1"/><polygon points="12 1 11 1 11 2 12 2 12 1 12 1"/><rect class="cls-1" x="10" y="2" width="1" height="1"/><polygon points="11 2 10 2 10 3 11 3 11 2 11 2"/><rect class="cls-1" x="9" y="3" width="1" height="1"/><polygon points="10 3 9 3 9 4 10 4 10 3 10 3"/><rect class="cls-1" x="8" y="4" width="1" height="1"/><polygon points="9 4 8 4 8 5 9 5 9 4 9 4"/><rect class="cls-1" x="7" y="5" width="1" height="1"/><polygon points="8 5 7 5 7 6 8 6 8 5 8 5"/><polygon points="6 7 5 7 5 8 6 8 6 7 6 7"/><rect class="cls-1" x="4" y="8" width="1" height="1"/><polygon points="5 8 4 8 4 9 5 9 5 8 5 8"/><rect class="cls-1" x="3" y="9" width="1" height="1"/><polygon points="4 9 3 9 3 10 4 10 4 9 4 9"/><rect class="cls-1" x="2" y="10" width="1" height="1"/><polygon points="3 10 2 10 2 11 3 11 3 10 3 10"/><rect class="cls-1" x="1" y="11" width="1" height="1"/><polygon points="2 11 1 11 1 12 2 12 2 11 2 11"/><rect class="cls-1" y="0" width="1" height="1"/><polygon points="1 0 0 0 0 1 1 1 1 0 1 0"/><rect class="cls-1" x="12" y="0" width="1" height="1"/><polygon points="13 0 12 0 12 1 13 1 13 0 13 0"/><rect class="cls-1" y="12" width="1" height="1"/><polygon points="1 12 0 12 0 13 1 13 1 12 1 12"/><rect class="cls-1" x="12" y="12" width="1" height="1"/><polygon points="13 12 12 12 12 13 13 13 13 12 13 12"/></svg>